<?xml version="1.0" standalone="no"?>
<!DOCTYPE svg PUBLIC "-//W3C//DTD SVG 20010904//EN"
 "http://www.w3.org/TR/2001/REC-SVG-20010904/DTD/svg10.dtd">
<svg version="1.0" xmlns="http://www.w3.org/2000/svg"
 width="3928.000000pt" height="3928.000000pt" viewBox="0 0 3928.000000 3928.000000"
 preserveAspectRatio="xMidYMid meet">
<metadata>
Created by potrace 1.11, written by Peter Selinger 2001-2013
</metadata>
<g transform="translate(0.000000,3928.000000) scale(0.100000,-0.100000)"
fill="#000000" stroke="none">
<path d="M18749 39276 c-2 -2 -65 -7 -139 -10 -74 -4 -155 -8 -180 -11 -25 -2
-83 -6 -130 -10 -47 -3 -105 -8 -130 -10 -25 -2 -74 -6 -110 -9 -36 -3 -85 -8
-110 -11 -25 -2 -70 -7 -100 -10 -30 -2 -71 -7 -90 -9 -19 -3 -60 -7 -90 -10
-30 -3 -71 -8 -90 -11 -19 -3 -58 -7 -86 -10 -28 -3 -62 -8 -75 -10 -13 -3
-40 -7 -59 -10 -19 -2 -55 -7 -80 -10 -25 -4 -56 -8 -70 -9 -14 -2 -38 -6 -55
-9 -16 -4 -50 -9 -75 -12 -25 -3 -52 -8 -60 -10 -8 -3 -33 -7 -55 -10 -22 -2
-51 -7 -65 -10 -14 -3 -41 -8 -60 -11 -43 -6 -66 -11 -105 -18 -16 -3 -43 -8
-60 -11 -16 -3 -64 -12 -105 -20 -41 -9 -86 -17 -100 -20 -14 -3 -36 -7 -50
-10 -14 -3 -35 -7 -48 -10 -13 -2 -32 -7 -42 -10 -10 -3 -31 -8 -46 -10 -34
-5 -69 -12 -92 -19 -9 -3 -29 -7 -45 -10 -15 -3 -35 -7 -45 -10 -9 -3 -28 -8
-42 -10 -14 -3 -45 -10 -70 -17 -50 -12 -72 -17 -98 -23 -9 -2 -37 -9 -62 -16
-25 -7 -53 -14 -62 -16 -24 -5 -33 -8 -168 -44 -63 -17 -153 -42 -200 -56 -46
-14 -93 -28 -104 -30 -10 -2 -35 -9 -55 -16 -20 -7 -38 -12 -41 -13 -13 -2
-220 -68 -255 -82 -22 -8 -41 -14 -42 -14 -5 2 -7 1 -153 -50 -80 -28 -152
-52 -160 -54 -8 -2 -16 -4 -17 -5 -2 -2 -6 -3 -10 -5 -5 -1 -15 -5 -23 -8 -26
-11 -155 -59 -165 -61 -12 -3 1 2 -240 -94 -178 -70 -431 -175 -501 -207 -16
-8 -61 -28 -99 -45 -119 -53 -135 -61 -325 -153 -102 -50 -187 -91 -190 -92
-12 -3 -388 -197 -435 -225 -16 -9 -61 -34 -98 -54 -81 -44 -115 -63 -185
-105 -29 -17 -55 -31 -58 -31 -3 0 -30 -16 -60 -35 -30 -19 -56 -35 -58 -35
-3 0 -42 -23 -88 -51 -46 -29 -121 -75 -168 -104 -146 -89 -427 -274 -655
-431 -237 -164 -624 -458 -888 -675 -97 -80 -397 -336 -407 -348 -3 -3 -48
-44 -100 -91 -52 -47 -115 -104 -140 -128 -25 -23 -72 -68 -105 -99 -237 -224
-697 -695 -808 -828 -13 -16 -42 -48 -63 -70 -150 -158 -578 -681 -770 -940
-32 -44 -63 -85 -69 -91 -44 -51 -415 -590 -415 -604 0 -4 -4 -10 -8 -12 -4
-1 -47 -66 -96 -143 -49 -77 -99 -156 -111 -175 -58 -90 -325 -546 -325 -555
0 -2 -13 -26 -28 -52 -88 -149 -353 -676 -460 -913 -16 -36 -108 -244 -194
-440 -6 -14 -12 -29 -14 -35 -1 -5 -12 -32 -25 -60 -12 -27 -23 -52 -24 -55
-7 -21 -29 -77 -45 -112 -5 -13 -29 -75 -53 -138 -54 -143 -56 -149 -57 -155
0 -3 -7 -19 -15 -35 -8 -16 -15 -32 -15 -35 -1 -7 -5 -19 -54 -155 -25 -70
-46 -129 -46 -132 0 -4 -5 -19 -11 -35 -6 -15 -11 -30 -11 -33 0 -3 -4 -13
-10 -23 -5 -10 -11 -26 -13 -35 -2 -9 -10 -37 -18 -62 -28 -83 -101 -315 -103
-327 -1 -7 -9 -34 -17 -60 -22 -70 -57 -186 -62 -208 -6 -24 -32 -126 -46
-175 -5 -19 -11 -42 -13 -50 -2 -8 -12 -44 -21 -80 -9 -36 -19 -73 -21 -83 -2
-10 -6 -27 -9 -37 -3 -10 -8 -27 -10 -37 -2 -10 -8 -38 -15 -63 -6 -25 -12
-54 -15 -65 -2 -11 -6 -29 -8 -40 -8 -30 -25 -107 -31 -135 -3 -14 -7 -36 -10
-50 -3 -14 -8 -36 -11 -50 -10 -45 -15 -74 -21 -110 -3 -19 -7 -37 -9 -40 -2
-3 -6 -26 -10 -50 -3 -25 -8 -52 -11 -61 -2 -9 -11 -52 -19 -95 -8 -43 -16
-88 -18 -99 -3 -11 -8 -40 -11 -65 -3 -25 -8 -56 -11 -70 -2 -13 -7 -42 -10
-65 -9 -57 -15 -96 -20 -125 -2 -14 -7 -45 -10 -70 -4 -25 -8 -57 -11 -71 -5
-30 -14 -105 -29 -229 -3 -30 -8 -67 -11 -82 -2 -16 -7 -54 -10 -85 -2 -32 -6
-71 -8 -88 -4 -29 -16 -150 -21 -210 -2 -16 -6 -66 -9 -110 -3 -44 -8 -102
-11 -130 -26 -290 -38 -701 -38 -1255 0 -490 5 -675 28 -1035 3 -55 8 -125 10
-155 2 -30 7 -98 10 -150 4 -52 8 -111 10 -130 1 -19 6 -71 10 -115 3 -44 8
-96 10 -115 2 -19 7 -71 10 -115 4 -44 8 -96 10 -115 2 -19 6 -60 9 -90 16
-144 19 -167 21 -190 2 -21 9 -81 20 -180 5 -40 15 -123 20 -155 2 -16 7 -52
10 -80 3 -27 8 -65 11 -83 2 -18 7 -54 10 -80 3 -26 7 -60 10 -77 3 -16 7 -48
10 -70 2 -22 6 -51 9 -65 3 -14 8 -45 11 -70 3 -25 7 -58 10 -75 3 -16 7 -45
10 -64 2 -19 6 -46 9 -60 26 -156 35 -212 40 -246 3 -23 7 -52 10 -65 7 -37
24 -130 30 -170 3 -19 13 -73 21 -120 9 -47 18 -96 20 -110 2 -14 7 -36 9 -50
16 -78 23 -115 30 -155 4 -16 12 -61 20 -100 8 -38 16 -81 19 -95 4 -23 39
-194 51 -248 3 -12 7 -32 10 -44 10 -45 29 -133 30 -138 1 -3 7 -32 14 -65 15
-70 65 -283 87 -370 8 -33 17 -72 19 -87 3 -15 10 -39 15 -53 5 -14 8 -25 5
-25 -2 0 2 -18 10 -40 8 -22 12 -40 10 -40 -2 0 2 -18 10 -40 8 -22 12 -40 10
-40 -3 0 0 -11 5 -25 5 -14 12 -36 14 -48 16 -74 171 -642 232 -846 35 -120
69 -234 85 -286 5 -16 17 -57 28 -90 10 -33 33 -107 51 -165 18 -58 48 -152
67 -210 19 -58 36 -112 38 -120 2 -8 15 -49 30 -90 14 -41 28 -82 30 -91 1 -8
10 -32 19 -52 8 -20 13 -37 11 -37 -2 0 6 -24 17 -52 10 -29 21 -57 22 -63 2
-5 6 -17 9 -25 7 -20 31 -94 32 -100 0 -3 3 -9 6 -15 4 -5 12 -28 18 -50 7
-22 16 -49 21 -60 9 -22 54 -147 56 -155 0 -3 3 -12 7 -20 9 -24 59 -164 61
-175 2 -5 9 -23 15 -40 7 -16 14 -34 15 -40 2 -5 6 -17 9 -25 4 -8 16 -42 27
-75 12 -33 25 -69 30 -80 5 -11 19 -47 30 -80 12 -33 25 -69 30 -80 10 -21 53
-136 55 -145 1 -3 9 -22 18 -44 9 -21 17 -42 17 -47 0 -5 4 -17 10 -27 5 -9
26 -60 46 -112 20 -52 57 -147 83 -210 25 -63 46 -117 46 -120 0 -3 3 -9 7
-15 3 -5 18 -41 33 -80 15 -38 33 -83 41 -100 7 -16 45 -106 84 -200 94 -225
119 -282 146 -335 7 -14 13 -29 15 -35 5 -19 40 -100 57 -130 9 -16 15 -31 15
-32 -1 -2 9 -29 24 -60 28 -64 46 -105 48 -113 1 -3 18 -41 39 -85 34 -71 56
-120 61 -135 2 -5 39 -84 114 -245 26 -55 67 -143 92 -195 61 -132 482 -974
574 -1150 106 -201 310 -582 355 -660 20 -36 54 -96 75 -135 21 -38 66 -120
101 -181 35 -61 64 -116 64 -122 0 -6 4 -12 8 -14 4 -2 41 -61 82 -133 112
-198 533 -907 588 -991 4 -6 14 -22 23 -35 9 -13 73 -116 143 -229 71 -113
155 -247 187 -298 32 -51 59 -97 59 -103 0 -5 4 -9 8 -9 4 0 16 -15 27 -32 10
-18 60 -97 112 -176 51 -79 93 -145 93 -148 0 -3 5 -10 10 -17 22 -25 340
-510 340 -518 0 -5 4 -9 8 -9 5 0 17 -16 28 -35 10 -19 22 -35 26 -35 5 0 8
-5 8 -10 0 -6 37 -64 83 -130 45 -66 111 -163 147 -215 101 -149 432 -621 571
-815 256 -357 310 -431 589 -806 107 -143 204 -274 215 -289 11 -15 25 -32 30
-39 6 -6 24 -29 40 -51 32 -42 328 -427 373 -484 30 -38 178 -227 220 -280 28
-36 390 -487 503 -627 35 -43 67 -81 70 -84 3 -3 70 -84 150 -180 79 -96 154
-186 166 -200 11 -14 99 -117 194 -230 95 -113 216 -254 268 -315 52 -60 105
-121 117 -135 209 -241 695 -791 898 -1015 335 -369 518 -566 831 -889 55 -57
158 -166 230 -242 500 -537 790 -782 1185 -1006 111 -63 235 -128 245 -129 2
0 31 -13 64 -29 33 -17 62 -30 64 -30 3 0 22 -8 43 -17 22 -9 44 -18 49 -19 6
-2 62 -21 125 -43 102 -35 236 -74 299 -86 11 -2 24 -6 29 -8 4 -3 32 -8 62
-12 30 -4 57 -8 60 -10 9 -5 111 -19 240 -32 147 -15 625 -8 725 11 11 2 43 7
70 10 28 4 57 9 65 11 8 2 31 6 50 9 19 3 46 8 60 11 14 3 36 7 50 10 20 4
166 42 225 59 10 3 95 28 105 31 3 1 14 5 25 10 11 4 56 21 100 38 105 39 128
49 270 118 123 60 236 120 245 129 8 8 111 70 116 70 3 0 10 5 17 10 7 6 57
43 112 82 222 157 484 397 777 709 54 58 241 258 311 333 22 22 87 91 145 152
113 117 190 198 393 415 196 209 262 281 294 318 17 19 39 43 51 55 57 58 498
551 780 872 327 373 761 893 1281 1534 71 88 332 415 418 525 60 77 112 142
115 145 3 3 19 23 36 45 17 22 115 150 219 285 203 264 580 764 715 950 46 63
88 120 93 125 4 6 109 152 233 325 123 173 230 322 237 331 6 8 17 23 22 32
13 22 157 229 167 242 5 6 35 48 66 95 229 337 292 432 292 437 0 3 7 13 15
22 31 33 460 695 651 1006 37 61 71 112 76 113 4 2 8 8 8 13 0 9 127 219 147
244 4 6 14 21 21 35 19 39 62 110 104 173 21 32 38 60 38 63 0 2 18 32 39 68
127 207 454 772 702 1213 10 18 35 63 55 100 20 37 45 82 54 98 19 32 50 90
120 220 24 44 56 103 71 130 15 28 41 77 58 110 17 33 67 128 111 210 90 169
528 1041 607 1210 28 61 70 149 92 198 23 48 59 126 82 175 22 48 50 107 61
132 11 25 30 68 43 95 12 28 32 73 45 100 12 28 33 75 47 105 14 30 33 75 43
100 10 25 32 77 50 115 51 112 55 123 116 270 31 77 61 145 66 151 5 7 11 20
13 30 4 17 72 188 95 239 5 11 32 79 60 150 28 72 55 139 59 150 21 47 223
578 241 635 11 33 69 191 77 210 3 8 7 20 9 25 1 6 28 82 59 170 31 88 72 207
92 265 19 58 45 134 58 170 38 105 213 653 295 925 10 33 28 92 40 130 12 39
23 77 25 86 2 9 18 63 35 120 17 57 33 114 36 125 2 12 16 62 30 110 14 49 27
98 30 108 2 10 8 33 14 51 6 18 12 41 14 51 3 10 14 54 26 96 11 43 23 85 25
95 2 10 33 135 69 278 37 143 68 269 70 280 2 11 11 47 19 80 9 33 19 74 22
90 3 17 8 41 11 55 3 14 7 33 10 42 3 9 7 25 9 35 2 10 12 59 24 108 11 50 22
101 25 115 3 14 8 36 11 50 6 27 12 57 20 105 3 17 10 46 15 65 5 19 12 51 15
70 3 19 8 42 10 50 2 8 7 31 10 50 3 19 8 42 10 50 2 8 7 31 10 50 3 19 8 42
10 50 2 8 6 31 9 50 3 19 8 46 11 60 3 14 9 50 15 80 6 30 12 65 14 76 2 12 7
37 10 55 3 19 8 44 10 55 5 23 13 71 22 132 3 20 7 44 10 53 2 9 7 34 9 55 3
20 7 50 10 66 3 15 7 40 10 56 2 15 6 41 9 58 3 17 8 46 10 65 3 19 7 48 10
64 11 72 25 164 31 205 1 14 6 45 9 70 3 25 8 54 10 65 2 11 7 47 11 80 4 33
8 69 10 80 16 105 31 226 40 323 4 35 8 73 11 85 2 12 6 51 10 87 3 36 7 76 9
90 3 14 7 55 10 90 3 36 7 81 10 100 2 19 7 69 10 110 4 41 8 91 10 110 5 51
16 178 20 230 5 69 16 209 20 267 9 110 17 254 31 533 4 85 7 436 7 780 0 615
-3 740 -28 1085 -3 50 -8 116 -10 147 -2 31 -7 85 -10 120 -4 35 -8 79 -10 98
-10 102 -16 159 -20 198 -3 23 -7 61 -10 85 -9 82 -15 132 -20 167 -3 19 -7
53 -10 75 -2 22 -7 56 -10 75 -2 19 -7 53 -10 75 -3 23 -7 50 -9 60 -2 11 -7
40 -10 65 -3 25 -8 56 -11 70 -3 14 -7 43 -10 65 -3 22 -7 51 -10 65 -2 14 -7
39 -10 55 -11 67 -40 226 -49 271 -2 12 -7 37 -10 55 -3 19 -8 45 -11 59 -9
43 -36 174 -40 195 -2 11 -6 29 -9 40 -7 26 -37 164 -42 194 -3 14 -7 28 -9
31 -2 4 -7 20 -10 36 -5 28 -87 354 -106 424 -5 19 -11 42 -14 50 -2 8 -14 49
-25 90 -12 41 -23 82 -25 90 -2 8 -13 47 -25 85 -12 39 -26 86 -31 105 -6 19
-19 60 -29 90 -10 30 -34 105 -53 165 -44 137 -159 467 -180 518 -9 20 -16 40
-16 42 -1 3 -8 21 -16 41 -8 20 -15 40 -15 45 0 5 -4 17 -9 27 -9 16 -55 131
-57 142 0 3 -6 16 -11 30 -41 94 -75 177 -78 191 -2 9 -8 25 -14 35 -13 24
-61 133 -61 139 0 6 -17 42 -87 194 -23 51 -43 95 -43 96 0 19 -295 615 -403
815 -146 270 -180 332 -215 385 -6 11 -16 29 -22 40 -5 11 -46 82 -92 157 -46
75 -103 170 -127 210 -25 40 -48 75 -53 76 -4 2 -8 8 -8 14 0 13 -290 452
-301 456 -5 2 -9 8 -9 13 0 16 -363 517 -474 654 -14 17 -62 77 -107 135 -192
243 -495 595 -719 834 -206 220 -524 539 -694 697 -39 35 -87 81 -109 102 -21
20 -43 37 -48 37 -5 0 -9 4 -9 8 0 8 -205 190 -385 342 -60 51 -121 102 -135
114 -20 17 -195 157 -235 188 -5 4 -35 27 -65 51 -50 40 -357 269 -405 303
-11 8 -63 45 -115 82 -52 37 -144 101 -205 142 -60 41 -114 78 -120 82 -5 5
-89 58 -185 119 -96 61 -191 122 -210 134 -54 35 -336 202 -450 268 -77 44
-245 136 -395 217 -92 50 -650 330 -658 330 -2 0 -54 23 -113 52 -60 29 -111
52 -114 53 -3 0 -21 8 -40 17 -19 9 -75 33 -125 54 -49 20 -95 41 -101 46 -7
5 -20 10 -30 13 -11 2 -66 23 -124 48 -58 24 -114 47 -125 52 -11 5 -22 9 -25
10 -17 6 -50 19 -80 31 -19 8 -38 15 -43 14 -4 0 -20 6 -35 14 -15 8 -54 23
-87 34 -76 26 -255 90 -275 99 -8 3 -19 7 -25 9 -5 1 -44 14 -85 29 -41 14
-84 28 -94 30 -11 3 -60 19 -110 36 -50 17 -95 32 -101 34 -5 1 -28 7 -50 13
-22 6 -42 11 -45 11 -3 0 -29 9 -57 20 -29 11 -53 19 -53 16 0 -2 -12 0 -27 6
-16 6 -35 12 -43 15 -8 2 -49 13 -90 24 -91 26 -140 39 -160 44 -75 20 -385
98 -398 101 -9 2 -60 13 -112 25 -113 26 -126 29 -164 36 -16 2 -32 7 -35 9
-4 2 -27 6 -51 10 -25 3 -53 8 -62 11 -24 7 -109 24 -143 28 -11 2 -29 6 -40
9 -11 3 -40 9 -65 12 -24 4 -47 8 -50 10 -3 1 -25 6 -50 9 -25 3 -55 8 -66 10
-12 2 -39 7 -60 11 -54 8 -90 14 -154 25 -30 5 -73 12 -95 15 -22 3 -51 7 -65
10 -14 3 -41 7 -60 10 -67 8 -120 15 -162 20 -24 3 -61 8 -83 11 -89 11 -112
14 -150 19 -22 3 -67 7 -100 10 -33 3 -71 7 -85 10 -14 2 -59 7 -100 10 -41 3
-86 8 -100 10 -14 2 -68 7 -120 10 -52 4 -111 9 -130 10 -19 2 -80 6 -135 10
-55 4 -125 9 -155 12 -66 6 -1305 15 -1311 9z m1056 -2231 c254 -9 400 -19
625 -40 30 -3 78 -8 105 -10 28 -3 66 -7 85 -10 45 -6 115 -15 164 -20 51 -6
115 -14 146 -20 14 -3 43 -7 65 -10 22 -3 51 -7 65 -9 14 -3 45 -7 70 -10 25
-3 55 -8 66 -10 12 -2 37 -7 55 -10 19 -3 45 -8 59 -11 13 -2 42 -7 65 -10 22
-3 48 -8 58 -11 10 -3 30 -7 45 -9 26 -4 44 -8 102 -20 34 -7 69 -14 105 -21
25 -4 109 -22 230 -50 29 -6 57 -12 85 -18 14 -3 37 -8 52 -12 15 -3 30 -5 33
-5 2 0 23 -6 45 -14 22 -8 40 -12 40 -10 0 2 18 -2 40 -10 22 -8 40 -12 40
-10 0 3 11 0 25 -5 14 -5 36 -12 48 -14 42 -9 62 -14 137 -35 41 -12 84 -24
95 -26 93 -22 716 -216 775 -242 8 -3 18 -7 22 -7 3 -1 10 -4 14 -8 4 -5 13
-8 20 -8 7 0 25 -5 41 -12 15 -6 30 -12 33 -12 3 -1 19 -6 35 -13 17 -6 86
-33 155 -59 69 -25 143 -54 165 -64 55 -23 78 -33 90 -35 6 -2 30 -12 55 -23
25 -11 115 -51 200 -87 306 -132 704 -335 1073 -546 114 -66 218 -125 230
-132 12 -6 24 -15 27 -18 3 -3 43 -29 90 -57 119 -73 104 -64 315 -201 104
-68 192 -127 193 -132 2 -5 8 -9 13 -9 20 0 431 -302 674 -495 503 -400 1043
-910 1434 -1355 51 -58 105 -118 120 -135 59 -65 243 -287 340 -410 56 -71
109 -138 117 -148 141 -175 614 -850 614 -877 0 -4 3 -10 8 -12 4 -1 27 -34
51 -73 24 -38 54 -86 67 -105 33 -51 164 -272 164 -277 0 -2 11 -21 24 -42 81
-127 317 -579 423 -806 83 -179 153 -334 153 -339 0 -2 8 -21 17 -42 9 -22 17
-41 18 -44 1 -3 9 -23 18 -44 50 -114 78 -182 81 -196 1 -3 8 -16 16 -30 7
-14 13 -27 13 -30 0 -6 5 -21 37 -100 12 -30 23 -59 25 -65 1 -5 7 -23 14 -40
6 -16 23 -61 37 -100 14 -38 30 -81 36 -95 14 -34 150 -441 153 -460 2 -8 4
-15 5 -15 1 0 3 -7 5 -15 2 -8 20 -69 40 -135 20 -66 38 -124 39 -130 1 -5 8
-30 15 -55 7 -25 15 -52 16 -60 2 -8 11 -42 20 -75 29 -107 56 -212 60 -234 2
-13 6 -30 9 -39 3 -9 7 -28 10 -42 5 -24 8 -40 22 -100 3 -14 7 -35 9 -47 2
-11 6 -29 9 -40 3 -10 8 -31 11 -48 2 -16 7 -41 10 -55 11 -51 26 -126 30
-150 2 -14 11 -62 19 -107 8 -45 17 -99 21 -120 3 -21 7 -50 10 -63 5 -25 13
-78 20 -127 2 -15 6 -41 9 -58 2 -16 8 -50 11 -75 8 -59 16 -108 20 -131 2
-10 7 -49 10 -86 4 -37 9 -77 11 -88 2 -11 7 -45 10 -75 4 -30 8 -66 9 -80 2
-14 6 -56 10 -95 4 -38 9 -83 11 -100 3 -31 15 -173 19 -235 6 -86 18 -313 21
-400 4 -123 4 -885 0 -1015 -6 -193 -18 -432 -32 -635 -3 -58 -8 -125 -9 -150
-2 -25 -6 -83 -10 -130 -4 -47 -8 -101 -10 -120 -1 -19 -6 -69 -10 -110 -4
-41 -9 -91 -10 -110 -8 -84 -27 -263 -40 -370 -2 -14 -6 -56 -10 -93 -3 -37
-8 -78 -11 -90 -2 -12 -6 -42 -9 -67 -3 -25 -7 -55 -10 -68 -2 -13 -7 -50 -10
-83 -4 -33 -8 -70 -11 -82 -2 -12 -6 -37 -9 -57 -11 -79 -16 -117 -20 -145 -2
-16 -6 -43 -9 -60 -3 -16 -7 -48 -11 -70 -3 -23 -7 -52 -10 -65 -3 -13 -7 -42
-10 -65 -11 -75 -28 -178 -40 -235 -2 -13 -7 -40 -10 -60 -3 -20 -7 -47 -10
-60 -3 -13 -7 -42 -11 -64 -3 -22 -7 -43 -9 -46 -1 -3 -6 -27 -9 -54 -4 -27
-9 -52 -11 -56 -2 -3 -6 -28 -10 -54 -3 -27 -7 -52 -10 -56 -3 -4 -7 -23 -10
-41 -2 -19 -6 -43 -9 -54 -2 -11 -21 -103 -41 -205 -20 -102 -38 -194 -41
-205 -9 -40 -13 -61 -19 -85 -3 -14 -7 -36 -10 -50 -3 -14 -7 -35 -10 -47 -10
-46 -15 -68 -20 -88 -2 -11 -6 -31 -10 -45 -8 -36 -13 -62 -19 -90 -3 -14 -8
-37 -12 -52 -3 -15 -6 -31 -6 -35 0 -5 -4 -18 -9 -31 -5 -12 -11 -33 -13 -45
-2 -12 -12 -53 -21 -92 -9 -38 -18 -78 -20 -88 -2 -9 -11 -45 -20 -80 -9 -34
-18 -70 -21 -79 -2 -10 -6 -27 -9 -38 -10 -40 -16 -65 -20 -85 -6 -25 -80
-298 -104 -385 -7 -25 -15 -56 -18 -69 -2 -13 -8 -32 -14 -43 -5 -10 -7 -18
-3 -18 3 0 0 -7 -7 -17 -8 -9 -13 -19 -11 -22 4 -8 -18 -102 -29 -122 -4 -9
-10 -27 -12 -40 -3 -14 -15 -56 -27 -94 -12 -39 -23 -77 -25 -85 -2 -8 -18
-60 -35 -115 -17 -55 -33 -108 -35 -118 -2 -10 -13 -45 -25 -77 -12 -32 -23
-67 -25 -77 -2 -15 -192 -593 -211 -643 -3 -8 -5 -16 -5 -17 0 -2 -11 -33 -25
-70 -14 -38 -36 -99 -49 -138 -12 -38 -30 -88 -38 -110 -9 -22 -41 -110 -72
-195 -31 -85 -60 -164 -65 -175 -4 -11 -41 -105 -80 -210 -40 -104 -77 -201
-83 -215 -5 -14 -11 -30 -12 -35 -2 -6 -12 -32 -24 -57 -11 -26 -21 -50 -21
-54 0 -3 -12 -34 -26 -68 -39 -92 -40 -92 -90 -216 -25 -63 -52 -128 -59 -145
-8 -16 -26 -59 -40 -95 -15 -36 -33 -78 -40 -95 -7 -16 -32 -72 -54 -123 -23
-50 -41 -95 -41 -98 0 -3 -13 -35 -30 -71 -16 -35 -30 -66 -30 -68 0 -2 -13
-32 -29 -67 -16 -35 -49 -108 -74 -163 -54 -120 -94 -207 -212 -460 -85 -183
-126 -268 -306 -630 -266 -535 -499 -979 -726 -1385 -11 -19 -35 -62 -53 -95
-63 -114 -284 -500 -322 -563 -21 -34 -38 -65 -38 -67 0 -3 -11 -22 -24 -43
-13 -20 -77 -127 -142 -237 -65 -110 -122 -201 -126 -203 -4 -2 -8 -8 -8 -14
0 -10 -28 -58 -177 -298 -227 -367 -389 -625 -496 -788 -37 -56 -67 -107 -67
-112 0 -6 -4 -10 -8 -10 -4 0 -16 -15 -27 -32 -102 -176 -990 -1473 -1131
-1653 -8 -11 -32 -43 -52 -71 -196 -272 -743 -1006 -778 -1044 -8 -8 -94 -119
-192 -246 -330 -426 -687 -870 -1110 -1379 -138 -166 -230 -275 -248 -295 -12
-14 -107 -124 -210 -245 -103 -121 -197 -231 -210 -245 -12 -14 -55 -63 -96
-110 -227 -263 -638 -729 -798 -905 -204 -224 -392 -428 -427 -465 -24 -25
-73 -76 -109 -115 -168 -179 -248 -262 -548 -564 -387 -389 -485 -468 -686
-551 -41 -17 -76 -31 -78 -30 -1 0 -12 -2 -25 -5 -12 -3 -35 -8 -52 -11 -73
-16 -300 -12 -385 6 -98 21 -260 78 -260 91 0 5 -6 9 -14 9 -7 0 -53 28 -102
63 -129 91 -766 735 -1280 1292 -276 301 -292 317 -659 730 -35 39 -131 149
-215 245 -83 96 -164 189 -179 205 -211 231 -592 678 -891 1045 -74 91 -143
174 -152 185 -9 11 -30 36 -45 56 -61 78 -356 444 -363 449 -3 3 -17 21 -30
40 -13 19 -27 37 -30 40 -4 3 -97 122 -208 265 -111 143 -207 266 -213 273
-56 67 -540 710 -709 942 -46 63 -90 121 -97 128 -7 7 -13 17 -13 22 0 5 -6
15 -13 22 -28 29 -327 447 -327 458 0 4 -4 10 -8 12 -5 2 -28 32 -53 68 -24
36 -47 67 -50 70 -3 3 -83 118 -177 255 -94 138 -181 261 -192 275 -11 14 -20
30 -20 37 0 6 -4 13 -9 15 -11 4 -431 636 -431 648 0 6 -4 10 -8 10 -4 0 -16
15 -27 32 -24 43 -108 172 -115 178 -3 3 -12 16 -20 30 -8 14 -39 64 -68 110
-30 47 -118 189 -198 315 -79 127 -149 237 -154 245 -6 8 -16 25 -23 37 -7 12
-63 106 -124 208 -62 102 -113 189 -113 194 0 5 -4 11 -8 13 -4 2 -33 46 -64
98 -136 231 -248 423 -248 427 0 2 -11 20 -24 41 -20 33 -236 415 -326 577
-18 33 -41 74 -50 90 -9 17 -36 66 -60 110 -23 44 -55 103 -70 130 -15 28 -56
104 -91 170 -34 66 -91 174 -126 240 -65 124 -471 937 -516 1035 -14 30 -50
107 -80 170 -30 63 -64 138 -77 165 -12 28 -33 73 -47 100 -14 28 -24 50 -23
50 1 0 -12 29 -28 65 -25 55 -71 158 -127 285 -55 123 -129 295 -160 370 -21
50 -46 108 -55 130 -34 76 -122 290 -130 316 -4 15 -15 43 -24 63 -29 65 -70
167 -71 176 -1 3 -9 22 -18 44 -9 21 -17 44 -17 50 0 7 -4 16 -9 21 -4 6 -32
73 -60 150 -29 77 -58 156 -66 175 -17 45 -23 64 -21 71 0 3 -4 12 -10 20 -11
14 -35 80 -32 89 0 3 -8 23 -19 45 -12 22 -22 45 -23 50 -1 6 -4 15 -6 20 -69
192 -86 242 -88 250 -2 6 -8 23 -14 38 -7 16 -12 33 -12 39 0 5 -6 24 -14 41
-8 18 -35 95 -61 172 -26 77 -50 147 -53 155 -3 8 -6 20 -8 25 -1 6 -26 80
-54 165 -29 85 -53 162 -55 170 -2 8 -16 56 -32 105 -17 50 -42 131 -57 180
-16 50 -32 101 -37 115 -11 32 -109 370 -114 393 -2 9 -6 21 -9 25 -3 5 -7 19
-10 33 -8 39 -13 59 -39 149 -14 47 -28 99 -33 115 -4 17 -8 32 -9 35 -8 27
-28 98 -30 110 -2 8 -11 42 -20 75 -9 33 -18 68 -21 78 -5 20 -12 49 -18 75
-43 164 -117 466 -131 527 -22 97 -22 94 -29 125 -3 14 -10 45 -16 70 -5 25
-11 54 -14 65 -2 11 -11 52 -20 90 -8 39 -17 82 -20 95 -7 30 -24 115 -31 150
-3 14 -8 41 -11 60 -3 19 -7 43 -10 52 -7 25 -18 78 -39 198 -8 47 -17 96 -20
110 -6 28 -12 64 -20 110 -8 46 -14 83 -20 110 -3 14 -7 41 -10 60 -3 19 -6
44 -9 55 -2 11 -7 42 -10 68 -4 27 -9 59 -12 70 -2 12 -7 42 -10 67 -3 25 -8
54 -10 65 -2 11 -7 40 -10 65 -3 25 -7 56 -10 70 -2 14 -6 45 -10 70 -3 25 -7
56 -10 70 -2 14 -6 45 -9 70 -3 25 -8 61 -11 80 -3 19 -7 55 -10 80 -2 25 -7
56 -9 70 -3 14 -7 54 -11 90 -3 36 -8 74 -10 85 -2 11 -6 44 -9 75 -3 30 -7
71 -10 90 -3 19 -7 64 -11 100 -3 36 -8 79 -10 95 -1 17 -6 64 -9 105 -3 41
-8 86 -10 100 -2 14 -7 66 -10 115 -4 50 -8 106 -10 125 -8 82 -26 355 -40
630 -31 579 -22 1408 20 1920 16 193 35 379 51 490 3 25 7 56 9 70 2 14 6 48
10 75 3 28 8 61 11 75 2 14 7 43 9 65 6 45 13 88 20 125 3 14 7 41 10 60 3 19
7 46 10 60 3 14 7 39 10 55 5 28 8 46 20 105 2 14 7 39 10 55 3 17 7 41 10 55
3 14 10 50 16 80 6 30 12 60 13 65 2 6 6 28 10 50 5 22 14 65 21 95 8 30 16
66 19 80 3 14 7 34 10 45 20 87 28 123 31 138 2 10 7 27 10 37 3 10 7 27 9 37
2 10 11 45 20 78 21 74 25 90 30 113 2 9 18 67 36 127 17 61 32 115 34 120 1
6 9 30 16 55 8 25 14 47 15 50 4 17 57 188 62 200 3 8 7 20 8 25 4 13 65 195
72 215 4 8 7 17 7 20 1 3 6 19 13 35 6 17 26 71 44 120 17 50 36 101 42 115 6
14 11 27 12 30 5 23 29 87 35 95 3 6 17 38 29 72 12 34 32 84 43 110 12 26 23
50 23 53 4 14 102 244 134 315 15 33 41 89 57 125 29 64 270 548 321 645 26
47 129 232 223 395 23 41 47 77 51 78 5 2 9 7 9 12 0 26 299 485 495 760 111
155 307 417 364 486 14 17 33 40 41 50 68 86 108 134 191 234 53 63 107 126
119 140 12 14 39 45 59 69 20 25 47 56 61 70 14 15 45 49 69 76 200 226 709
735 876 876 22 19 45 39 50 45 27 30 313 272 485 410 124 100 475 363 586 439
273 188 499 335 514 335 5 0 10 3 10 8 0 4 26 22 58 40 31 18 113 66 181 107
68 42 148 89 179 106 31 17 75 41 97 54 136 79 574 302 761 388 191 87 263
119 374 167 41 17 89 37 105 45 17 7 95 38 175 70 80 31 154 61 165 66 62 27
593 215 635 224 8 2 51 15 95 30 44 15 86 28 95 30 8 2 27 8 43 14 15 6 27 8
27 5 0 -3 6 -2 13 3 6 4 17 8 22 10 6 1 60 16 120 33 61 18 117 34 125 36 56
14 138 35 155 38 11 2 40 9 65 16 43 12 54 14 101 25 11 2 28 6 37 9 9 3 28 7
42 10 14 3 36 8 50 11 14 3 36 7 50 10 14 3 35 7 48 10 12 3 32 7 45 10 12 3
36 8 52 11 17 2 41 7 55 9 14 3 36 7 50 10 75 16 98 20 160 29 19 3 46 8 60
11 32 7 63 12 120 21 25 3 54 8 65 10 36 6 138 20 203 29 113 15 156 21 237
30 28 2 70 7 95 10 44 5 71 8 195 20 212 19 308 27 514 40 188 12 224 14 446
21 121 3 221 7 222 8 4 4 260 -2 468 -9z"/>
<path d="M19297 34844 c-1 -1 -94 -5 -207 -8 -113 -4 -227 -9 -255 -11 -136
-9 -254 -17 -285 -20 -67 -6 -165 -15 -215 -21 -27 -3 -68 -7 -90 -9 -22 -2
-56 -6 -75 -9 -97 -12 -147 -19 -170 -21 -14 -2 -41 -6 -61 -9 -20 -4 -51 -8
-70 -11 -33 -3 -88 -12 -133 -21 -11 -2 -41 -7 -66 -10 -25 -3 -54 -8 -65 -10
-11 -2 -33 -7 -50 -9 -26 -5 -72 -14 -205 -40 -14 -3 -36 -7 -50 -10 -32 -6
-55 -11 -110 -24 -25 -5 -56 -12 -70 -15 -24 -5 -42 -9 -90 -21 -11 -3 -28 -7
-37 -9 -10 -2 -47 -12 -83 -21 -36 -9 -73 -19 -84 -21 -10 -2 -44 -11 -75 -20
-31 -9 -63 -18 -71 -20 -8 -2 -40 -10 -70 -19 -30 -9 -62 -18 -70 -20 -8 -2
-46 -13 -85 -25 -38 -13 -74 -23 -80 -25 -5 -1 -19 -5 -30 -9 -73 -28 -96 -36
-103 -37 -12 -2 -23 -6 -132 -44 -58 -20 -109 -38 -115 -39 -5 -2 -21 -8 -35
-13 -14 -6 -47 -18 -75 -27 -27 -9 -65 -24 -83 -32 -18 -8 -41 -17 -51 -19
-10 -2 -27 -8 -37 -14 -11 -6 -75 -34 -144 -62 -137 -56 -175 -73 -298 -130
-45 -21 -85 -40 -90 -41 -4 -1 -101 -50 -217 -109 -301 -153 -339 -173 -345
-180 -3 -3 -41 -25 -85 -48 -89 -49 -297 -172 -395 -235 -212 -135 -650 -438
-715 -493 -5 -5 -64 -51 -130 -103 -101 -78 -429 -351 -445 -370 -3 -3 -59
-55 -125 -115 -421 -384 -839 -847 -1224 -1358 -152 -200 -189 -257 -158 -243
155 67 587 223 587 211 0 -3 12 0 28 6 15 6 34 12 42 14 8 2 67 18 130 34 117
30 158 40 197 46 11 2 29 6 40 9 10 3 32 8 48 11 17 2 41 7 55 10 22 5 47 10
155 30 17 3 46 8 65 10 19 3 46 7 60 10 14 3 42 7 63 10 20 3 53 7 72 10 62 9
109 15 165 21 30 3 71 7 90 10 19 2 71 6 115 10 44 3 96 8 115 10 220 22 884
22 1100 -1 19 -2 69 -6 110 -10 97 -8 145 -13 200 -20 25 -4 65 -8 90 -11 25
-3 56 -7 70 -9 14 -3 43 -8 65 -10 49 -7 92 -14 125 -20 14 -3 36 -8 50 -10
14 -3 41 -8 60 -11 19 -3 43 -7 52 -10 10 -3 30 -8 45 -10 22 -4 218 -52 286
-69 9 -3 25 -7 35 -9 9 -2 44 -12 77 -22 33 -10 65 -19 70 -20 87 -21 535
-170 610 -203 11 -5 52 -21 90 -36 150 -60 216 -90 440 -201 315 -155 519
-277 825 -491 393 -275 815 -667 1170 -1087 92 -108 238 -298 334 -433 l58
-82 55 76 c479 669 1042 1223 1653 1628 41 28 77 52 80 55 3 3 16 11 30 19 14
8 72 44 129 79 129 79 485 275 493 271 2 -1 40 17 86 39 45 23 82 39 82 36 0
-2 10 2 23 10 12 7 63 30 112 51 50 20 105 44 124 52 18 8 39 16 45 18 6 1 25
8 41 14 17 7 35 14 40 15 6 2 24 9 40 15 87 36 524 173 628 197 9 2 25 6 35 9
18 5 183 43 217 51 11 2 31 6 45 10 14 3 39 7 55 10 17 3 46 9 65 14 19 5 53
12 75 15 22 4 47 8 55 10 8 2 31 7 50 10 19 3 46 8 60 10 14 3 43 7 65 10 22
3 50 7 62 9 12 3 49 7 82 11 33 3 69 8 80 10 12 2 54 7 94 11 39 3 86 8 102
10 120 13 297 18 595 18 350 1 475 -5 715 -28 128 -13 151 -16 185 -21 19 -2
55 -7 80 -10 25 -3 56 -7 70 -10 14 -3 45 -8 70 -11 61 -8 79 -11 118 -18 17
-3 47 -9 65 -12 17 -3 41 -8 52 -9 24 -4 70 -13 105 -20 14 -3 45 -10 70 -15
25 -5 56 -12 70 -15 14 -3 36 -8 49 -11 14 -3 28 -7 31 -9 4 -2 22 -7 40 -10
82 -14 431 -114 467 -133 10 -6 20 -10 23 -10 18 1 171 -53 305 -107 44 -18
81 -29 83 -24 10 25 -415 581 -633 829 -366 416 -796 824 -1260 1196 -116 93
-397 305 -470 354 -27 18 -52 36 -55 39 -3 3 -66 46 -140 96 -74 49 -136 93
-138 97 -2 5 -8 8 -13 8 -11 0 -173 102 -177 112 -2 5 -7 8 -12 8 -5 0 -61 32
-125 70 -126 76 -239 141 -295 168 -19 9 -37 20 -40 23 -22 25 -526 268 -785
379 -189 81 -192 82 -425 169 -91 34 -172 65 -180 68 -8 3 -19 7 -25 8 -12 3
-133 44 -155 52 -8 3 -19 7 -25 9 -5 1 -59 18 -120 38 -60 20 -117 36 -126 36
-9 0 -19 3 -23 7 -3 4 -12 8 -19 9 -7 1 -70 19 -142 39 -71 20 -139 39 -150
41 -11 3 -27 7 -35 9 -8 2 -16 4 -17 5 -2 2 -6 3 -10 4 -32 8 -72 17 -90 21
-13 3 -32 7 -43 10 -48 12 -67 16 -90 21 -14 3 -41 9 -60 14 -40 11 -308 65
-360 74 -19 3 -44 7 -55 10 -11 2 -40 7 -65 11 -25 4 -54 9 -65 11 -21 4 -88
14 -120 19 -11 1 -36 5 -55 9 -19 3 -55 8 -80 11 -25 3 -55 7 -67 9 -19 4 -88
12 -173 21 -14 1 -52 5 -85 9 -119 12 -141 15 -235 22 -155 11 -167 12 -357
19 -205 8 -432 13 -436 9z"/>
<path d="M13658 29085 c-2 -2 -43 -6 -93 -10 -99 -7 -142 -11 -225 -21 -30 -3
-66 -7 -80 -9 -30 -3 -96 -13 -130 -20 -13 -3 -40 -7 -60 -10 -20 -3 -47 -8
-60 -10 -14 -3 -36 -7 -50 -10 -14 -3 -36 -7 -50 -10 -14 -3 -36 -7 -50 -10
-14 -3 -52 -12 -85 -20 -56 -14 -89 -22 -125 -30 -8 -2 -16 -4 -17 -5 -2 -2
-6 -3 -10 -4 -130 -34 -377 -120 -533 -186 -101 -42 -364 -173 -368 -182 -2
-5 -8 -8 -13 -8 -14 0 -163 -90 -294 -179 -441 -296 -839 -706 -1147 -1181
-84 -129 -192 -316 -203 -348 -3 -12 -11 -22 -16 -22 -5 0 -9 -6 -9 -12 0 -7
-18 -49 -40 -93 -22 -44 -40 -85 -40 -92 0 -7 -4 -13 -10 -13 -5 0 -10 -7 -10
-15 0 -8 -11 -38 -24 -67 -56 -126 -114 -284 -161 -443 -10 -33 -18 -61 -17
-62 1 -2 -6 -22 -14 -45 -8 -24 -17 -59 -20 -78 -4 -19 -11 -44 -17 -55 -6
-11 -9 -21 -8 -23 1 -1 -3 -28 -10 -60 -7 -31 -13 -64 -14 -72 -4 -27 -16 -85
-20 -100 -3 -8 -7 -33 -10 -55 -3 -22 -7 -51 -10 -65 -2 -13 -7 -42 -10 -65
-3 -22 -8 -58 -12 -80 -6 -44 -7 -52 -19 -175 -11 -111 -11 -657 0 -785 5 -55
10 -113 11 -130 3 -38 13 -132 21 -193 3 -26 7 -65 9 -87 3 -22 7 -56 10 -75
3 -19 7 -53 10 -75 2 -22 6 -53 9 -70 2 -16 7 -50 11 -75 4 -25 9 -58 11 -75
3 -16 7 -41 9 -55 2 -14 6 -38 9 -55 3 -16 8 -46 11 -65 9 -57 25 -143 30
-170 3 -14 7 -36 10 -50 4 -31 13 -78 20 -107 3 -13 7 -33 10 -45 3 -13 7 -34
10 -48 10 -53 14 -72 19 -88 3 -9 8 -28 10 -42 19 -91 27 -124 46 -195 12 -44
23 -89 25 -100 2 -11 14 -54 25 -95 11 -41 22 -82 24 -90 2 -8 20 -69 41 -135
20 -66 38 -127 40 -135 5 -24 130 -388 160 -465 14 -38 28 -74 29 -80 2 -5 8
-21 13 -35 6 -14 30 -72 53 -130 42 -105 127 -305 158 -370 9 -19 17 -37 17
-40 2 -19 258 -519 339 -662 78 -136 142 -247 157 -268 9 -14 43 -68 75 -120
166 -269 450 -668 668 -940 96 -121 287 -349 334 -400 12 -14 31 -34 41 -45
10 -11 48 -54 86 -95 187 -206 455 -469 765 -750 150 -136 504 -415 735 -580
88 -63 162 -117 165 -120 4 -5 284 -188 390 -255 110 -70 362 -218 480 -282
172 -94 226 -122 349 -184 167 -82 317 -153 451 -211 25 -10 54 -23 65 -28 48
-22 214 -89 260 -105 28 -10 54 -22 59 -27 6 -4 16 -8 24 -8 8 0 28 -6 45 -14
61 -26 296 -110 337 -121 8 -2 51 -16 95 -30 44 -15 94 -30 110 -35 17 -4 86
-25 155 -45 69 -20 133 -38 143 -41 9 -2 25 -6 35 -8 9 -3 62 -17 117 -31 55
-15 111 -29 125 -32 22 -4 85 -17 133 -29 34 -8 63 -14 87 -19 14 -3 36 -7 50
-10 14 -3 59 -12 100 -20 41 -8 85 -17 96 -19 12 -2 37 -7 55 -10 19 -3 45 -8
59 -11 14 -3 41 -7 60 -10 19 -3 44 -7 56 -9 12 -2 45 -7 75 -11 30 -4 56 -8
59 -10 3 -1 32 -6 65 -10 33 -4 69 -8 80 -10 11 -1 47 -6 80 -10 33 -3 71 -8
85 -10 14 -3 54 -7 90 -10 36 -4 79 -8 95 -10 58 -6 190 -18 230 -20 22 -1 99
-6 170 -11 256 -17 1007 -10 1250 11 28 3 86 7 130 11 84 6 103 8 200 18 113
12 140 15 185 21 64 8 104 14 215 30 22 3 54 7 71 9 16 2 39 6 50 9 10 3 39 8
64 11 25 3 56 8 70 11 13 2 42 7 64 11 22 3 43 7 46 9 3 1 25 6 50 9 25 3 60
10 78 15 18 5 33 10 35 9 5 0 93 17 140 27 12 3 36 8 52 11 17 3 57 12 90 20
33 9 69 18 80 20 11 2 65 16 120 30 55 14 105 27 110 28 25 6 110 30 218 62
64 19 125 37 135 39 9 2 31 9 47 15 45 16 298 100 315 105 20 5 180 64 205 75
11 5 99 41 195 79 96 38 193 78 215 87 22 10 42 18 45 19 3 1 32 14 65 29 33
15 76 35 95 43 99 44 529 259 624 312 60 34 111 61 112 61 1 0 75 43 163 95
1134 667 2050 1496 2884 2607 132 176 380 539 487 713 24 39 53 86 66 105 38
61 147 252 246 435 77 142 225 448 296 610 19 44 41 96 50 115 8 19 17 40 18
45 2 8 67 172 119 300 4 11 9 25 11 30 2 6 12 35 23 65 26 70 111 312 114 325
6 21 60 194 93 301 19 62 36 120 38 130 2 11 10 39 17 64 17 60 17 62 22 85 3
11 16 63 30 115 14 52 28 106 31 120 2 14 18 86 35 160 17 74 33 149 36 165 2
17 7 41 10 55 3 14 7 39 10 55 3 17 8 41 10 55 16 78 18 89 35 190 15 92 22
134 25 160 5 48 17 133 20 150 2 9 6 41 10 71 3 30 8 70 11 90 5 41 12 98 20
184 3 33 7 74 9 90 14 120 20 281 20 540 0 260 -4 362 -20 475 -2 14 -6 50
-10 80 -7 67 -14 112 -30 213 -29 177 -113 516 -169 682 -2 6 -4 15 -6 20 -1
6 -6 18 -12 28 -5 10 -11 26 -13 35 -5 22 -89 228 -127 312 -59 130 -120 248
-213 406 -35 61 -118 188 -157 241 -21 29 -38 56 -38 62 0 5 -3 11 -8 13 -4 2
-23 23 -42 48 -19 25 -37 47 -40 50 -3 3 -17 21 -30 40 -13 19 -27 37 -30 40
-3 3 -24 27 -45 55 -120 150 -418 446 -580 576 -151 122 -353 261 -493 341
-63 36 -253 138 -257 138 -2 0 -42 18 -90 40 -91 43 -353 150 -366 150 -4 0
-20 5 -36 12 -15 6 -32 12 -38 14 -5 1 -39 12 -75 24 -80 26 -236 70 -270 77
-14 2 -43 9 -65 14 -22 5 -49 12 -60 14 -30 7 -126 26 -155 30 -14 2 -38 6
-55 9 -16 3 -50 8 -75 11 -25 3 -57 8 -71 10 -14 3 -52 8 -85 11 -32 3 -72 8
-89 9 -194 21 -728 28 -890 12 -44 -5 -93 -10 -110 -12 -63 -6 -261 -33 -300
-41 -11 -2 -32 -6 -46 -9 -41 -8 -172 -34 -194 -39 -65 -15 -120 -29 -200 -52
-49 -13 -94 -26 -100 -28 -242 -68 -681 -259 -901 -392 -39 -24 -75 -44 -78
-44 -4 0 -12 -5 -19 -10 -7 -6 -70 -49 -142 -97 -71 -47 -142 -95 -157 -107
-14 -11 -41 -32 -59 -46 -303 -228 -608 -549 -855 -900 -121 -171 -297 -484
-377 -670 -42 -96 -76 -180 -92 -225 -10 -27 -23 -56 -28 -62 -5 -7 -7 -13 -3
-13 3 0 -4 -24 -15 -52 -12 -29 -22 -60 -24 -68 -2 -8 -13 -44 -25 -80 -12
-36 -23 -72 -25 -80 -2 -8 -19 -78 -39 -155 -19 -77 -37 -151 -40 -165 -3 -14
-7 -35 -10 -46 -2 -12 -7 -37 -10 -55 -3 -19 -8 -45 -11 -59 -2 -13 -7 -40
-10 -60 -3 -20 -7 -45 -9 -56 -6 -29 -18 -123 -21 -159 -1 -16 -6 -66 -10
-110 -12 -127 -13 -193 -21 -870 -7 -638 -10 -3434 -4 -4290 2 -247 0 -465 -4
-482 -3 -18 -8 -48 -11 -65 -8 -50 -62 -153 -100 -192 -59 -61 -134 -99 -226
-113 -44 -7 -1177 -9 -1384 -3 -183 6 -275 44 -357 147 -17 22 -42 64 -43 73
0 3 -6 15 -13 28 -7 12 -10 22 -7 22 3 0 1 9 -5 19 -5 11 -13 36 -16 57 -3 21
-7 1242 -8 2713 -2 1472 -6 2701 -8 2731 -3 30 -9 96 -13 145 -11 149 -20 237
-40 363 -4 23 -8 52 -10 65 -3 25 -15 89 -21 121 -2 11 -7 35 -9 51 -3 17 -8
38 -11 47 -3 9 -7 27 -9 40 -3 13 -12 52 -21 87 -9 36 -18 74 -20 84 -2 11
-10 41 -18 66 -7 25 -22 73 -31 106 -9 33 -28 92 -42 130 -14 39 -26 75 -27
80 -2 6 -7 19 -11 30 -4 11 -21 54 -37 95 -46 118 -58 145 -141 312 -268 545
-621 987 -1120 1402 -68 56 -299 220 -380 269 -156 95 -177 107 -312 176 -121
63 -329 154 -445 196 -41 14 -84 30 -95 35 -18 8 -81 29 -110 37 -5 1 -57 16
-115 33 -58 17 -113 33 -122 36 -10 2 -27 6 -38 9 -43 11 -58 14 -130 30 -41
9 -86 18 -100 21 -14 2 -41 7 -60 10 -19 4 -42 8 -50 9 -8 1 -33 5 -55 9 -22
4 -51 9 -65 11 -28 4 -99 13 -180 21 -30 3 -71 8 -90 10 -39 6 -647 14 -652 9z
m571 -479 c52 -4 102 -9 112 -11 10 -2 44 -6 76 -10 32 -3 65 -8 73 -10 8 -2
33 -7 55 -10 23 -3 52 -8 65 -10 14 -3 39 -8 55 -10 17 -3 38 -8 47 -11 9 -3
26 -7 37 -9 12 -3 31 -7 44 -11 12 -3 32 -7 44 -10 12 -2 33 -8 45 -13 13 -5
25 -8 28 -8 24 1 348 -109 365 -124 5 -5 15 -9 21 -9 12 0 100 -39 234 -103
157 -75 445 -252 595 -366 33 -25 65 -49 70 -53 168 -123 492 -431 633 -602
78 -94 238 -317 272 -377 8 -15 39 -69 68 -120 74 -127 159 -301 221 -454 29
-71 54 -134 56 -140 1 -5 5 -17 8 -25 10 -24 59 -174 62 -190 2 -8 4 -15 5
-15 1 0 3 -7 5 -15 2 -8 14 -51 26 -95 11 -44 22 -87 24 -95 2 -8 8 -35 14
-60 5 -25 13 -61 16 -80 3 -19 8 -42 10 -50 5 -18 12 -59 21 -125 3 -27 8 -59
10 -70 27 -141 26 -720 -1 -920 -3 -16 -7 -48 -9 -70 -9 -69 -16 -119 -21
-145 -3 -14 -8 -40 -11 -59 -6 -35 -8 -45 -24 -121 -6 -25 -13 -56 -16 -70 -3
-14 -10 -43 -16 -65 -6 -22 -13 -47 -14 -56 -5 -23 -90 -279 -105 -314 -7 -16
-13 -32 -14 -35 -13 -38 -45 -114 -61 -142 -8 -15 -15 -31 -16 -35 -1 -12 -74
-160 -112 -230 -216 -390 -520 -770 -835 -1045 -112 -97 -323 -258 -339 -258
-6 0 -12 -4 -14 -9 -4 -10 -214 -142 -313 -196 -78 -43 -255 -131 -326 -163
-157 -71 -487 -185 -570 -197 -14 -3 -38 -9 -52 -14 -15 -6 -27 -8 -27 -6 0 2
-10 1 -23 -4 -13 -5 -41 -12 -63 -16 -21 -4 -43 -8 -49 -9 -28 -8 -125 -24
-180 -31 -22 -3 -56 -7 -75 -10 -197 -27 -756 -28 -897 -1 -12 3 -46 7 -75 10
-29 4 -64 8 -78 11 -13 3 -42 7 -65 10 -22 4 -56 10 -75 15 -19 5 -48 12 -65
14 -16 3 -41 8 -55 11 -14 3 -36 8 -49 11 -14 3 -28 7 -31 9 -4 2 -20 6 -36 9
-73 13 -466 148 -509 174 -5 4 -15 7 -21 8 -22 3 -291 138 -384 191 -267 155
-489 322 -700 528 -101 98 -254 261 -315 335 -20 25 -44 54 -54 65 -140 167
-328 452 -430 655 -24 47 -48 91 -53 98 -6 6 -8 12 -5 12 4 0 -4 21 -17 48
-23 45 -75 166 -80 187 -2 6 -7 21 -13 35 -22 55 -55 156 -87 273 -32 113 -41
148 -51 202 -2 11 -6 31 -9 45 -24 111 -38 196 -52 315 -3 33 -8 69 -10 80 -8
42 -17 257 -18 405 0 181 10 345 30 485 3 22 7 54 9 72 4 29 18 115 30 173 3
14 7 34 9 45 15 77 50 216 62 248 7 20 12 37 10 37 -3 0 15 57 40 128 24 70
46 134 48 142 9 31 58 145 68 158 6 6 8 12 5 12 -3 0 10 31 29 70 18 38 34 72
34 74 0 11 127 238 188 336 341 546 884 1059 1411 1332 53 28 107 56 121 64
23 12 46 23 170 76 73 32 95 41 100 43 3 0 32 11 65 24 33 13 65 24 70 26 6 1
17 5 25 8 67 25 259 84 301 92 11 2 29 7 39 10 10 3 29 8 42 10 13 3 37 8 53
12 17 4 32 7 35 8 3 1 25 5 50 9 25 5 54 10 65 12 75 15 98 18 195 30 30 3 63
8 74 10 10 2 66 6 125 10 58 3 107 7 108 8 6 5 412 -2 492 -8z m10816 0 c44
-4 98 -9 120 -11 92 -11 139 -17 159 -21 12 -2 37 -6 56 -9 35 -5 63 -10 110
-20 31 -7 67 -14 102 -20 15 -3 38 -9 52 -15 15 -5 26 -8 26 -5 0 2 18 -2 40
-10 22 -8 42 -14 45 -14 20 -1 187 -50 235 -68 8 -4 17 -7 20 -7 32 -7 272
-106 385 -160 72 -35 137 -66 145 -69 8 -4 22 -11 30 -16 8 -6 71 -44 140 -84
663 -393 1184 -985 1518 -1728 59 -129 145 -374 178 -501 2 -10 6 -26 9 -35 6
-24 26 -103 31 -128 4 -17 12 -56 28 -130 2 -11 7 -40 11 -65 4 -25 9 -54 11
-65 2 -11 7 -43 9 -71 3 -28 8 -62 10 -75 14 -66 20 -208 20 -444 0 -271 -5
-361 -30 -520 -3 -16 -7 -48 -11 -70 -6 -43 -42 -227 -50 -260 -3 -11 -7 -30
-10 -42 -2 -12 -9 -34 -14 -48 -5 -14 -7 -25 -5 -25 2 0 0 -12 -6 -27 -6 -16
-12 -35 -14 -43 -8 -40 -78 -247 -87 -257 -6 -7 -8 -13 -5 -13 7 0 -9 -40 -67
-173 -8 -17 -15 -35 -16 -39 -2 -18 -139 -281 -192 -371 -279 -473 -681 -908
-1128 -1221 -52 -37 -107 -71 -122 -77 -16 -6 -28 -14 -28 -18 0 -3 -17 -15
-37 -26 -21 -10 -50 -27 -64 -36 -28 -19 -235 -124 -314 -159 -27 -12 -68 -30
-90 -40 -47 -21 -223 -89 -245 -95 -8 -2 -64 -20 -125 -40 -95 -31 -137 -43
-215 -60 -8 -2 -57 -13 -108 -24 -51 -12 -109 -24 -129 -27 -19 -3 -44 -7 -55
-9 -11 -3 -46 -7 -77 -11 -31 -3 -65 -8 -76 -10 -101 -19 -653 -27 -805 -11
-120 12 -153 16 -190 22 -19 3 -52 8 -74 11 -21 3 -48 8 -60 10 -11 2 -34 7
-51 10 -16 3 -68 14 -115 25 -47 11 -96 22 -110 25 -14 2 -41 10 -60 16 -19 7
-37 13 -40 13 -45 9 -78 19 -89 29 -8 6 -16 10 -18 8 -10 -8 -275 90 -302 111
-8 7 -17 12 -20 11 -38 -7 -553 272 -569 309 -2 4 -8 7 -14 7 -11 0 -74 44
-206 143 -280 212 -542 475 -739 741 -41 56 -83 112 -94 126 -10 13 -19 30
-19 36 0 7 -3 14 -7 16 -11 4 -63 85 -63 97 0 5 -4 11 -8 13 -7 3 -20 24 -83
133 -46 81 -165 322 -198 400 -18 44 -40 94 -47 112 -8 17 -14 37 -14 45 0 8
-3 17 -6 21 -9 8 -53 137 -47 137 2 0 1 6 -4 13 -4 6 -8 17 -10 22 -1 6 -14
48 -28 95 -14 47 -27 95 -30 108 -2 12 -6 30 -9 40 -3 9 -7 28 -10 42 -3 14
-8 36 -11 50 -3 14 -7 39 -10 55 -3 17 -8 44 -12 60 -3 17 -7 40 -9 52 -1 13
-5 40 -8 60 -24 146 -31 260 -31 523 0 233 4 327 19 445 2 17 7 53 10 80 3 28
8 60 10 71 3 12 7 37 10 55 3 19 8 45 11 59 3 14 8 39 11 55 2 17 9 46 14 65
5 19 11 46 14 60 5 26 8 36 26 105 6 22 13 47 15 55 2 8 4 16 4 18 1 1 1 4 1
7 0 3 6 21 14 40 9 20 15 39 16 43 1 18 72 224 95 277 8 17 28 64 45 105 121
283 313 601 494 818 87 105 171 195 287 308 172 168 210 202 349 313 63 50
120 95 126 100 30 24 238 162 314 208 137 82 343 184 462 229 24 9 52 20 63
25 28 12 119 46 127 48 4 1 13 3 20 6 22 7 152 46 168 50 31 9 106 27 123 30
9 2 21 6 25 9 4 2 27 7 52 11 25 4 47 8 50 10 3 2 21 6 40 9 19 3 46 8 60 11
51 10 127 20 305 41 17 2 75 6 130 10 55 3 101 7 102 8 5 5 364 -2 438 -8z"/>
<path d="M13817 26444 c-1 -1 -33 -4 -72 -8 -38 -3 -81 -8 -95 -11 -14 -2 -41
-7 -60 -9 -31 -5 -65 -12 -95 -20 -5 -1 -30 -8 -55 -15 -343 -94 -672 -339
-882 -659 -90 -136 -167 -296 -188 -387 -1 -5 -6 -18 -11 -27 -5 -9 -12 -34
-15 -55 -3 -21 -8 -41 -10 -44 -2 -3 -6 -19 -8 -35 -3 -16 -8 -40 -11 -54 -24
-122 -24 -397 0 -520 3 -14 7 -38 9 -55 2 -16 14 -68 25 -115 20 -77 28 -105
50 -165 20 -54 134 -274 151 -293 11 -12 20 -24 20 -28 0 -15 119 -157 203
-242 177 -181 373 -303 607 -382 51 -17 107 -32 112 -29 2 0 15 -4 30 -10 15
-6 49 -13 75 -17 27 -3 57 -9 68 -12 46 -12 392 -10 465 3 41 7 91 16 110 19
19 3 85 21 146 40 261 84 513 243 691 440 84 93 179 219 209 278 9 18 20 35
23 38 18 14 117 253 121 292 0 4 7 25 15 47 7 22 16 54 19 73 3 18 8 44 11 58
15 69 20 141 19 310 0 163 -4 229 -20 305 -3 11 -9 40 -14 65 -42 211 -183
485 -342 667 -217 249 -555 455 -853 518 -83 18 -127 26 -170 31 -47 6 -273
12 -278 8z"/>
<path d="M24677 26444 c-1 -1 -31 -5 -67 -8 -61 -6 -82 -9 -155 -21 -108 -18
-237 -57 -333 -101 -29 -13 -54 -24 -56 -24 -15 0 -167 -96 -246 -154 -97 -72
-257 -225 -322 -306 -57 -73 -133 -190 -170 -265 -32 -64 -87 -195 -93 -220
-1 -5 -5 -17 -8 -25 -6 -16 -39 -155 -43 -180 -1 -8 -6 -37 -11 -65 -16 -98
-8 -470 11 -525 3 -8 7 -28 10 -45 8 -48 41 -164 49 -171 4 -4 7 -15 7 -25 0
-36 156 -347 190 -379 3 -3 20 -25 38 -49 55 -76 144 -170 232 -244 47 -40 87
-74 90 -77 48 -49 355 -217 430 -234 3 -1 11 -5 18 -9 6 -5 12 -6 12 -2 0 3 8
1 18 -4 11 -6 30 -12 43 -14 13 -3 44 -10 69 -17 25 -7 54 -14 65 -15 11 -2
43 -7 70 -11 28 -5 131 -8 230 -9 212 0 263 6 415 46 41 11 84 22 95 24 11 3
29 9 40 14 11 5 56 24 100 42 333 139 623 413 798 754 72 139 125 299 143 430
3 22 10 58 14 79 9 42 6 383 -4 431 -9 43 -18 96 -22 125 -2 14 -10 44 -18 68
-8 23 -15 46 -16 50 -1 13 -12 47 -37 112 -113 292 -336 574 -596 754 -152
105 -419 216 -582 242 -20 3 -47 8 -59 10 -61 12 -339 27 -349 18z"/>
<path d="M11917 15684 c-3 -3 1 -18 9 -32 8 -15 48 -99 90 -187 42 -88 151
-311 243 -495 155 -309 223 -441 328 -640 22 -41 64 -120 93 -175 29 -55 66
-125 83 -155 16 -30 45 -84 65 -120 19 -36 50 -91 68 -123 19 -32 34 -60 34
-62 0 -2 24 -46 53 -97 149 -260 197 -347 197 -356 0 -6 4 -12 8 -14 5 -2 23
-30 42 -63 18 -33 92 -159 163 -280 72 -121 137 -233 146 -250 9 -16 18 -32
21 -35 3 -3 29 -44 57 -91 208 -350 542 -876 858 -1349 104 -157 192 -289 194
-295 2 -5 7 -12 11 -15 4 -3 31 -41 60 -85 29 -44 57 -81 62 -83 4 -2 8 -7 8
-12 0 -6 123 -190 158 -235 13 -18 126 -179 152 -217 13 -20 27 -35 31 -32 11
7 298 420 495 714 65 96 120 177 123 180 4 3 35 50 71 105 36 55 67 102 70
105 3 3 21 31 40 63 19 31 38 57 42 57 4 0 8 4 8 9 0 5 55 94 123 198 67 104
142 221 167 261 48 78 128 205 166 262 21 34 41 65 219 360 76 125 214 358
241 405 6 11 33 58 59 105 27 47 52 86 57 88 4 2 8 12 8 23 0 10 5 19 10 19 6
0 10 4 10 9 0 5 18 40 40 77 22 38 39 73 37 78 -3 9 -15 13 -63 20 -11 2 -45
9 -75 15 -30 6 -63 13 -74 15 -11 3 -42 10 -70 16 -27 6 -59 13 -70 15 -11 1
-38 7 -60 13 -22 6 -51 13 -65 16 -14 3 -72 16 -130 30 -89 22 -147 36 -282
71 -10 3 -26 7 -35 9 -159 41 -512 147 -663 200 -41 15 -82 28 -90 31 -32 8
-360 127 -420 152 -8 3 -17 7 -20 8 -39 13 -337 134 -397 160 -32 15 -67 30
-78 35 -11 5 -55 25 -98 44 -44 20 -81 36 -84 36 -8 0 -538 264 -628 313 -565
306 -1028 600 -1534 975 -85 63 -159 118 -165 123 -59 49 -114 87 -119 83z"/>
<path d="M26573 15566 c-214 -160 -331 -246 -338 -246 -3 0 -13 -8 -23 -17
-11 -10 -81 -60 -158 -111 -679 -454 -1168 -732 -1829 -1037 -76 -35 -325
-143 -345 -150 -3 -1 -16 -7 -30 -12 -63 -28 -374 -148 -405 -157 -5 -2 -23
-8 -40 -15 -40 -17 -438 -151 -461 -156 -11 -2 -48 -13 -84 -25 -36 -12 -69
-23 -75 -24 -5 -1 -26 -7 -45 -13 -63 -20 -145 -43 -165 -48 -11 -2 -117 -29
-235 -60 -210 -54 -230 -59 -287 -70 -16 -3 -36 -8 -45 -11 -10 -3 -28 -7 -40
-10 -13 -2 -34 -6 -48 -10 -25 -6 -144 -30 -190 -39 -39 -8 -73 -14 -100 -20
-14 -3 -41 -8 -60 -11 -39 -6 -63 -10 -100 -18 -13 -3 -42 -8 -65 -11 -22 -3
-51 -8 -65 -10 -63 -13 -77 -15 -115 -20 -22 -3 -51 -7 -65 -10 -24 -5 -63
-10 -145 -21 -22 -3 -51 -7 -65 -9 -25 -4 -64 -9 -150 -20 -160 -19 -203 -23
-275 -30 -27 -3 -68 -7 -90 -9 -22 -3 -78 -8 -125 -11 -47 -4 -103 -9 -125
-11 -45 -3 -215 -15 -290 -19 -27 -1 -122 -6 -209 -10 -174 -7 -165 -4 -202
-74 -19 -36 -326 -589 -370 -666 -12 -22 -35 -62 -49 -90 -15 -27 -33 -57 -41
-66 -8 -8 -14 -18 -14 -22 0 -4 -46 -84 -101 -179 -56 -95 -107 -182 -113
-193 -18 -34 -349 -582 -378 -628 -15 -23 -31 -49 -35 -57 -7 -15 -53 -90 -98
-160 -12 -19 -65 -102 -116 -185 -52 -82 -112 -178 -134 -212 -22 -34 -78
-122 -125 -195 -219 -343 -688 -1037 -933 -1381 -42 -59 -77 -110 -77 -112 0
-3 -7 -13 -15 -22 -8 -10 -95 -129 -193 -264 l-178 -246 74 -94 c41 -52 78
-96 81 -99 4 -3 18 -21 31 -40 13 -19 27 -37 30 -40 3 -3 23 -27 45 -55 22
-27 43 -51 47 -53 5 -2 8 -10 8 -18 0 -8 3 -14 8 -14 4 0 32 -32 62 -71 30
-39 60 -76 66 -83 6 -6 75 -90 154 -186 192 -235 417 -502 573 -685 71 -82
139 -161 150 -175 83 -97 541 -615 557 -630 13 -13 360 -396 470 -520 100
-113 187 -207 287 -310 46 -47 103 -107 128 -135 l45 -50 58 60 c88 93 271
291 462 500 96 105 176 192 180 195 3 3 35 39 70 80 36 41 72 81 81 90 21 19
153 167 349 390 84 96 156 177 159 180 38 31 948 1114 1168 1390 68 86 150
188 160 200 60 74 123 152 145 181 14 18 78 99 140 179 63 80 134 172 158 205
25 33 48 62 51 65 15 12 491 646 673 895 64 88 124 171 134 184 60 83 198 276
262 367 41 59 81 113 88 120 6 7 12 15 12 18 0 3 62 94 138 203 132 190 446
655 467 690 6 10 31 49 56 88 96 146 198 304 270 418 148 234 291 464 331 532
23 39 45 72 50 73 4 2 8 8 8 12 0 5 39 73 86 152 48 79 98 163 112 188 14 25
40 69 59 98 18 29 33 54 33 56 0 2 26 48 58 103 53 87 244 424 310 543 13 25
32 59 42 75 10 17 41 75 70 130 29 55 56 102 59 105 3 3 22 37 42 75 20 39 64
124 99 190 139 261 198 376 394 770 190 383 278 563 281 575 1 3 22 50 48 104
26 55 46 100 45 101 -2 2 -76 -52 -165 -119z"/>
</g>
</svg>
